<svg width="10" height="18" viewBox="0 0 10 18" fill="none" xmlns="http://www.w3.org/2000/svg">
<g clip-path="url(#clip0_816_82)">
<path d="M0.330982 9.9538L7.85947 17.7212C8.0336 17.9009 8.26604 18 8.51388 18C8.76173 18 8.99417 17.9009 9.1683 17.7212L9.72272 17.1493C10.0835 16.7766 10.0835 16.171 9.72272 15.7989L3.40086 9.27635L9.72974 2.7466C9.90386 2.5668 10 2.3271 10 2.0715C10 1.8157 9.90386 1.576 9.72974 1.396L9.17531 0.824301C9.00105 0.644501 8.76875 0.5455 8.5209 0.5455C8.27305 0.5455 8.04061 0.644501 7.86649 0.824301L0.330982 8.59875C0.156443 8.77911 0.0605822 9.01992 0.0611324 9.27592C0.0605822 9.53291 0.156443 9.77358 0.330982 9.9538Z" fill="#707070"/>
</g>
<defs>
<clipPath id="clip0_816_82">
<rect width="10" height="18" fill="white" transform="matrix(-1 0 0 -1 10 18)"/>
</clipPath>
</defs>
</svg>
