<svg width="10" height="18" viewBox="0 0 10 18" fill="none" xmlns="http://www.w3.org/2000/svg">
<g clip-path="url(#clip0_816_79)">
<path d="M9.66902 8.0462L2.14053 0.278845C1.9664 0.0990502 1.73396 0 1.48612 0C1.23827 0 1.00583 0.0990502 0.831701 0.278845L0.27728 0.850725C-0.0834863 1.22337 -0.0834863 1.82902 0.27728 2.2011L6.59914 8.72365L0.270265 15.2534C0.09614 15.4332 0 15.6729 0 15.9285C0 16.1843 0.09614 16.424 0.270265 16.604L0.824686 17.1757C0.998949 17.3555 1.23125 17.4545 1.4791 17.4545C1.72695 17.4545 1.95939 17.3555 2.13351 17.1757L9.66902 9.40125C9.84356 9.22089 9.93942 8.98008 9.93887 8.72408C9.93942 8.46709 9.84356 8.22642 9.66902 8.0462Z" fill="#707070"/>
</g>
<defs>
<clipPath id="clip0_816_79">
<rect width="10" height="18" fill="white"/>
</clipPath>
</defs>
</svg>
